<!-- Content for src/logo.svg -->
<svg xmlns="http://www.w3.org/2000/svg" viewBox="0 0 841.9 595.3">
  <g fill="#61DAFB">
    <path d="M161.3 0L0 295.3 161.3 595.3h519.3L841.9 295.3 680.6 0H161.3zm-.9 484.3L680 483.7 762.5 295.3 680.6 113.1 161.6 113.7 78.3 295.3l82.1 189z"/>
    <path d="M343.4 286.3l-74.1-128.4-10.3 17.9 49.2 85.4-27.5 47.8-77.4-134.2-10.3 17.9 49.2 85.4-27.5 47.8-77.4-134.2-10.3 17.9 50.3 87.3-27.5 47.8-78.5-136.2c-10.3 17.9 50.3 87.3-27.5 47.8-78.5-136.2-10.3 17.9 49.2 85.4-27.5 47.8-77.4-134.2-10.3 17.9 49.2 85.4-27.5 47.8-77.4-134.2zM510.4 484.3l-82.1-189 83.2-192 10.3 17.9-50.3 87.3 27.5 47.8 78.5-136.2 10.3 17.9-49.2 85.4 27.5 47.8 77.4-134.2 10.3 17.9-49.2 85.4 27.5 47.8 77.4-134.2 10.3 17.9-50.3 87.3 27.5 47.8z"/>
    <circle cx="420.9" cy="295.3" r="36.8"/>
  </g>
</svg>
